<?xml version="1.0" encoding="UTF-8"?>
<svg version="1.1" xmlns="http://www.w3.org/2000/svg" width="512" height="512">
<path d="M0 0 C1.35219312 1.14475441 2.68654148 2.31100227 4 3.5 C4.99 4.35271484 4.99 4.35271484 6 5.22265625 C18.29904778 16.53681934 26.9113049 33.6326411 28.22143555 50.32055664 C29.14339592 74.47434576 24.48288303 94.44811973 7.90625 112.5625 C-3.46319082 124.359823 -18.03737591 131.37881652 -34 134.5 C-29.76788791 154.7405361 -21.05915816 172.6676207 -3.36474609 184.60302734 C15.6080161 196.63858855 33.78804968 197.80050399 55.703125 197.9140625 C57.9952665 197.93279809 60.28740129 197.95237323 62.57952881 197.9727478 C68.57659927 198.02382249 74.57369204 198.06357948 80.57086182 198.10089111 C86.70484827 198.14108628 92.83874394 198.19210746 98.97265625 198.2421875 C110.98170683 198.33865437 122.99080896 198.42315174 135 198.5 C135.14477783 197.25202637 135.28955566 196.00405273 135.4387207 194.71826172 C137.42887228 177.56331015 148.33342926 161.93610236 161.0625 150.8125 C178.03852623 137.61943226 197.73916454 132.56257192 219 134.5 C234.67929299 136.50982728 248.25403864 142.87080237 260 153.5 C260.76957031 154.17675781 261.53914063 154.85351562 262.33203125 155.55078125 C275.28056817 167.61696472 283.62789515 185.36133556 284.3359375 203.1015625 C284.65761071 224.42339908 280.61110251 243.16632541 266 259.5 C265.35675781 260.23605469 264.71351563 260.97210938 264.05078125 261.73046875 C254.31786517 272.18300894 242.62509949 278.55501986 229 282.5 C227.81277344 282.86738281 227.81277344 282.86738281 226.6015625 283.2421875 C206.84255692 288.30326612 186.08158572 283.56990003 168.78955078 273.59423828 C151.7742215 263.19004922 140.14507886 245.93394242 135.375 226.734375 C135 224.5 135 224.5 135 220.5 C133.03040817 220.51332367 133.03040817 220.51332367 131.02102661 220.5269165 C118.57682352 220.60840984 106.13267538 220.66815969 93.68826485 220.70724869 C87.29222517 220.72802106 80.89640289 220.75614755 74.50048828 220.80175781 C68.31478651 220.84558717 62.12929233 220.86921468 55.94344711 220.87950897 C53.59703179 220.8868343 51.25062633 220.90113645 48.90430069 220.92292023 C19.2519383 221.18698137 -5.39310182 214.85962492 -28 194.5 C-30.31 192.19 -32.62 189.88 -35 187.5 C-35 219.51 -35 251.52 -35 284.5 C-31.04 285.49 -27.08 286.48 -23 287.5 C-3.7209922 293.8147676 11.9343786 307.47001451 21.07763672 325.48535156 C23.7216408 331.26044994 25.44667931 337.35606193 27 343.5 C27.19980469 344.27472656 27.39960938 345.04945313 27.60546875 345.84765625 C30.73601179 366.8935842 26.09863452 387.90498584 13.45703125 405.078125 C0.9024661 421.11675412 -16.98257279 431.19938343 -37.125 434.25 C-59.75890478 435.71025192 -80.70756104 430.27104865 -98.25 415.25 C-113.10961151 401.1512006 -121.77064299 382.09295592 -122.47070312 361.70556641 C-122.68181516 342.20936956 -117.22936101 324.23208762 -104 309.5 C-103.27167969 308.67886719 -102.54335937 307.85773438 -101.79296875 307.01171875 C-89.94605942 294.39925793 -75.65719882 288.20159974 -59 284.5 C-59 235 -59 185.5 -59 134.5 C-63.95 133.18 -68.9 131.86 -74 130.5 C-82.51514086 127.1113215 -90.17647439 122.61940946 -97 116.5 C-98.13888672 115.48292969 -98.13888672 115.48292969 -99.30078125 114.4453125 C-104.991822 109.0699093 -109.129005 103.28151755 -113 96.5 C-113.46277344 95.73300781 -113.92554688 94.96601563 -114.40234375 94.17578125 C-123.41052551 78.04867165 -124.74462436 56.96439339 -119.9753418 39.30761719 C-113.74500221 18.89298313 -100.6286468 2.43013917 -81.76953125 -7.671875 C-55.19464908 -21.08832037 -23.66891836 -17.74153914 0 0 Z M-89 27.5 C-97.76415471 40.15933458 -101.65390286 53.2853963 -99.57421875 68.64453125 C-96.8489922 82.47129417 -89.85356409 94.77650306 -78.33984375 103.01953125 C-64.25549096 111.93099987 -49.79292312 114.92886135 -33.37890625 111.8125 C-18.19842798 107.07476946 -7.02387799 97.64179015 0.48046875 83.76171875 C6.98034504 70.28543564 7.81142012 56.69733436 3 42.5 C-2.49147718 28.64810084 -12.05479981 18.13924802 -25.5 11.75 C-48.19958025 2.11893662 -73.21167533 8.37649261 -89 27.5 Z M168 175.5 C158.64583394 187.49913715 154.49377465 201.78993405 156.28515625 216.90625 C158.59389621 231.07249906 165.73763475 242.78663503 176.75 251.90625 C187.95371205 259.84221271 201.28544304 263.98671811 215 262.5 C230.32691981 259.66524054 242.59590379 252.99766824 252.265625 240.59375 C260.20631059 228.71213156 263.88460665 214.83357351 261.3046875 200.6875 C258.12430968 185.65202024 250.62328281 173.32142601 237.625 164.625 C213.95779769 150.55081518 186.54732312 155.37676054 168 175.5 Z M-85 321.5 C-95.4826684 334.15005908 -101.43340435 347.91346394 -100 364.5 C-97.58007966 379.81260515 -90.11122673 392.30822064 -77.9375 401.875 C-66.19263167 410.08253594 -53.21768388 413.03331435 -39 411.5 C-24.18443993 408.59595334 -12.11916251 401.22186708 -3.18359375 389.01953125 C5.02011719 376.08686413 7.900488 362.15807408 4.9375 347.125 C1.42258115 333.24684623 -6.40680846 322.02331501 -18.23828125 314.10546875 C-39.28074615 301.87286186 -67.57853921 302.98685499 -85 321.5 Z " fill="#FFFFFF" transform="translate(175,46.5)"/>
</svg>
