<?xml version="1.0" encoding="UTF-8"?>
<svg version="1.1" xmlns="http://www.w3.org/2000/svg" width="512" height="512">
<path d="M0 0 C16.36482015 12.88245925 27.80982908 30.09300632 30.609375 50.96484375 C32.64405755 71.66105915 28.15917353 92.05537448 14.9296875 108.4609375 C12.688074 111.01832612 10.37856791 113.47206516 7.99609375 115.8984375 C7.31933594 116.5996875 6.64257812 117.3009375 5.9453125 118.0234375 C-3.73620435 127.35853473 -19.28894828 135.8984375 -33.00390625 135.8984375 C-33.00390625 171.5384375 -33.00390625 207.1784375 -33.00390625 243.8984375 C-29.37390625 244.5584375 -25.74390625 245.2184375 -22.00390625 245.8984375 C-9.48341383 249.93070811 0.67309633 256.74411273 9.99609375 265.8984375 C10.69734375 266.57519531 11.39859375 267.25195312 12.12109375 267.94921875 C25.77281312 282.1075449 31.42801939 301.70687087 31.203125 321.02734375 C30.04115305 342.75402674 21.21440214 360.43906613 5.49609375 375.3359375 C-12.62543227 391.02095582 -32.84582756 394.0678302 -56.00390625 392.8984375 C-69.39374352 391.54063272 -82.82204945 384.58438169 -93.00390625 375.8984375 C-93.56851563 375.475625 -94.133125 375.0528125 -94.71484375 374.6171875 C-108.10414603 364.19655405 -115.97243668 347.24977213 -119.00390625 330.8984375 C-119.40676198 326.78261668 -119.48235112 322.71943454 -119.44140625 318.5859375 C-119.42895874 316.94854614 -119.42895874 316.94854614 -119.41625977 315.27807617 C-119.03096699 296.77990926 -112.39023397 280.67760529 -100.00390625 266.8984375 C-99.22660156 265.98191406 -99.22660156 265.98191406 -98.43359375 265.046875 C-88.53766641 254.1563821 -73.27336875 246.70136763 -59.00390625 243.8984375 C-57.68390625 243.8984375 -56.36390625 243.8984375 -55.00390625 243.8984375 C-55.00390625 208.2584375 -55.00390625 172.6184375 -55.00390625 135.8984375 C-57.64390625 135.5684375 -60.28390625 135.2384375 -63.00390625 134.8984375 C-75.72550775 131.6892366 -86.18376426 125.4678213 -96.00390625 116.8984375 C-96.61878906 116.37894531 -97.23367187 115.85945312 -97.8671875 115.32421875 C-109.81271979 104.42220422 -117.96629134 87.11515749 -119.2253418 71.07788086 C-120.11485167 47.77423937 -115.99013959 28.31584808 -100.3984375 10.38671875 C-74.02393902 -17.02038652 -31.5506761 -22.07316481 0 0 Z M-85.78125 28.8671875 C-95.34711404 40.74541053 -98.48099667 54.97585166 -97.00390625 69.8984375 C-94.03921339 84.70587641 -86.34743143 96.64570968 -74.25390625 105.7109375 C-61.58550199 114.08396094 -47.43543133 116.75427316 -32.62890625 113.8359375 C-18.75075248 110.32101865 -7.52722126 102.49162904 0.390625 90.66015625 C8.08632215 77.42205921 10.14220301 63.3034753 7.3125 48.265625 C2.53815646 33.09074056 -6.84963077 21.92906575 -20.7421875 14.41796875 C-44.13600719 3.13466958 -68.67846113 9.92255982 -85.78125 28.8671875 Z M-85.78125 284.8671875 C-95.35883729 296.75996764 -98.45592603 310.9644141 -97.00390625 325.8984375 C-94.10140795 340.83970717 -86.57238381 353.27410688 -74.0078125 361.97265625 C-60.93556297 369.91592125 -47.7637943 372.81899282 -32.62890625 369.8359375 C-18.75075248 366.32101865 -7.52722126 358.49162904 0.390625 346.66015625 C8.08632215 333.42205921 10.14220301 319.3034753 7.3125 304.265625 C2.53815646 289.09074056 -6.84963077 277.92906575 -20.7421875 270.41796875 C-44.13600719 259.13466958 -68.67846113 265.92255982 -85.78125 284.8671875 Z " fill="#FFFFFF" transform="translate(151.00390625,66.1015625)"/>
<path d="M0 0 C2.81550512 2.25240409 3.88199974 4.31171559 4.62890625 7.828125 C4.81574088 11.17909455 4.83442958 13.78312099 2.92527771 16.63647461 C2.36526566 17.23983643 1.8052536 17.84319824 1.22827148 18.46484375 C0.59073944 19.15594238 -0.0467926 19.84704102 -0.7036438 20.55908203 C-4.43635592 24.43704491 -8.20924025 28.26851837 -12.02734375 32.0625 C-12.88308487 32.91682617 -13.73882599 33.77115234 -14.62049866 34.65136719 C-17.32797381 37.35328862 -20.03892254 40.05169359 -22.75 42.75 C-24.59723675 44.59221577 -26.44424427 46.43466143 -28.29101562 48.27734375 C-32.79553003 52.77089061 -37.30289405 57.2615632 -41.8125 61.75 C-40.62765266 61.75879936 -40.62765266 61.75879936 -39.41886902 61.76777649 C-31.93157205 61.82596557 -24.44459795 61.89818927 -16.95759106 61.98571491 C-13.10952586 62.03021752 -9.26156164 62.06951621 -5.41333008 62.09643555 C-1.69133387 62.12267144 2.03026943 62.16321222 5.75201988 62.21318626 C7.16354121 62.22971925 8.57513028 62.24131719 9.98673439 62.24761391 C26.8647639 62.33043218 41.47345476 66.34549203 53.93359375 78.265625 C62.30946889 87.49795877 68.31827451 99.3436888 68.30775452 111.92559814 C68.30981651 113.82703079 68.30981651 113.82703079 68.31192017 115.76687622 C68.30838125 117.16912865 68.30474644 118.57138085 68.30102539 119.97363281 C68.30074328 121.45203652 68.30090172 122.93044037 68.3014679 124.40884399 C68.30175494 128.42088814 68.29587318 132.43290241 68.28889394 136.44493961 C68.28264498 140.63832002 68.28205538 144.8317011 68.28086853 149.02508545 C68.27775977 156.96521871 68.2695525 164.90533822 68.25951904 172.84546542 C68.24834379 181.88528756 68.24284389 190.92511036 68.23782361 199.96493769 C68.22736953 218.55996626 68.20977887 237.15498202 68.1875 255.75 C69.44522217 255.89928955 70.70294434 256.0485791 71.9987793 256.20239258 C86.31427382 257.90161821 98.52725732 265.44751628 109.1875 274.75 C109.80238281 275.26949219 110.41726563 275.78898437 111.05078125 276.32421875 C122.99631354 287.22623328 131.14988509 304.53328001 132.40893555 320.57055664 C133.33089592 344.72434576 128.67038303 364.69811973 112.09375 382.8125 C98.29254997 397.13310003 80.18331189 404.58904642 60.48168945 405.15039062 C37.6210391 405.41807561 19.42253746 398.42861906 2.7890625 382.4453125 C-11.94514557 367.10765563 -18.2296015 347.54748866 -18.02734375 326.53515625 C-16.89728662 306.62560424 -8.63012699 289.82222313 5.1875 275.75 C5.86425781 275.04875 6.54101562 274.3475 7.23828125 273.625 C16.9197981 264.28990277 32.47254203 255.75 46.1875 255.75 C46.12690098 236.99968496 46.04935554 218.24951244 45.95178509 199.49935246 C45.90687125 190.79279353 45.86744645 182.0862751 45.84106445 173.37963867 C45.81804859 165.78854052 45.7846106 158.19757101 45.73879844 150.60657495 C45.71491449 146.58935717 45.69615415 142.57226642 45.68988609 138.55497932 C45.68381328 134.76856391 45.66373487 130.98247331 45.63322449 127.19617844 C45.62447928 125.81156996 45.62071434 124.42691897 45.62249184 123.04228401 C45.63210101 112.09641315 44.49728163 103.46463207 37.421875 94.83203125 C30.6943161 88.56316955 22.16606621 85.61781288 13.13378906 85.63647461 C11.30234344 85.63658791 11.30234344 85.63658791 9.43389893 85.63670349 C7.46341583 85.64444542 7.46341583 85.64444542 5.453125 85.65234375 C4.0912074 85.65420979 2.72928912 85.65563282 1.36737061 85.65663147 C-2.20991889 85.66044197 -5.78716752 85.67025968 -9.36444092 85.68133545 C-13.01769457 85.69158116 -16.67095486 85.69613585 -20.32421875 85.70117188 C-27.48699776 85.71188331 -34.64974314 85.72894206 -41.8125 85.75 C-40.97018578 86.58898331 -40.97018578 86.58898331 -40.1108551 87.44491577 C-34.8255756 92.71017844 -29.54269145 97.97782728 -24.2624979 103.24818993 C-21.54765825 105.95780556 -18.83189396 108.66648089 -16.11401367 111.37304688 C-13.49234752 113.98386711 -10.87311432 116.59710521 -8.25556755 119.21205521 C-7.25527591 120.21049569 -6.25410291 121.20805396 -5.25204659 122.20472336 C-3.85134614 123.59819087 -2.45403199 124.99505976 -1.05688477 126.39208984 C-0.25968521 127.18706879 0.53751434 127.98204773 1.35887146 128.80111694 C4.02445062 131.64199028 4.34342074 133.32285704 4.375 137.125 C4.38917969 137.89585937 4.40335937 138.66671875 4.41796875 139.4609375 C4.1607567 142.01561989 3.53218863 143.57421909 2.1875 145.75 C-1.75368438 148.9029475 -4.84200357 149.28255319 -9.8125 148.75 C-14.44500246 146.47470855 -17.8001492 143.08375404 -21.42285156 139.49365234 C-22.06571106 138.86393524 -22.70857056 138.23421814 -23.37091064 137.5854187 C-25.48750615 135.50811299 -27.59611401 133.42296199 -29.703125 131.3359375 C-30.4254406 130.62177296 -31.1477562 129.90760841 -31.89196014 129.17180252 C-35.71161406 125.39378705 -39.52473483 121.60930986 -43.33300781 117.81982422 C-47.26276133 113.9122302 -51.21529862 110.0285508 -55.17343521 106.14974022 C-58.21852326 103.15696837 -61.245679 100.14653477 -64.26830292 97.13109207 C-65.71764841 95.69147656 -67.17373459 94.25861375 -68.63666534 92.83280563 C-70.6836992 90.83454283 -72.70391995 88.8124097 -74.71972656 86.78271484 C-75.3254248 86.20263672 -75.93112305 85.62255859 -76.55517578 85.02490234 C-80.22029209 81.26715389 -81.81140867 78.18299857 -82.04477215 72.87919331 C-81.37689586 66.7569021 -75.60790639 62.25794958 -71.43920898 58.11791992 C-70.80946167 57.48466797 -70.17971436 56.85141602 -69.53088379 56.19897461 C-67.46176713 54.12110232 -65.38547708 52.05057589 -63.30859375 49.98046875 C-61.86388892 48.53441601 -60.41948104 47.08806654 -58.97535706 45.64143372 C-55.95499211 42.61812629 -52.93105426 39.59845105 -49.90454102 36.58129883 C-46.02159648 32.70977892 -42.14774037 28.82930857 -38.2764883 24.94610119 C-35.29904021 21.96143702 -32.31685867 18.98153921 -29.33320808 16.00307655 C-27.90236569 14.57356976 -26.47301146 13.14257184 -25.04516411 11.71007347 C-23.05370014 9.71354519 -21.05596363 7.72351562 -19.05639648 5.73510742 C-18.46566849 5.14033096 -17.87494049 4.5455545 -17.26631165 3.93275452 C-12.1048934 -1.17527928 -7.01329904 -3.1170218 0 0 Z M18.1875 293.75 C6.63764598 307.64856647 3.89157067 322.22847048 5.1875 339.75 C7.61249613 352.63712228 15.34739849 364.64145387 25.875 372.375 C38.19067023 380.59160158 51.33069021 384.62378535 66.12890625 382.28515625 C80.8438108 379.04288915 93.16104003 371.31170795 101.87890625 358.9140625 C109.52819414 346.26419535 112.32386963 332.74744821 109.5 318.2109375 C105.22966808 303.30036187 97.50233961 291.94115095 84.125 283.8125 C62.42472883 271.97345604 35.35731883 275.0261799 18.1875 293.75 Z " fill="#FFFFFF" transform="translate(347.8125,54.25)"/>
</svg>
