<?xml version="1.0" encoding="UTF-8"?>
<svg version="1.1" xmlns="http://www.w3.org/2000/svg" width="512" height="512">
<path d="M0 0 C0.79792969 0.65613281 1.59585938 1.31226562 2.41796875 1.98828125 C3.12308594 2.53097656 3.82820313 3.07367188 4.5546875 3.6328125 C18.55352329 14.9363911 26.99638466 32.33561217 29.41796875 49.98828125 C31.25959042 70.25402358 27.3978062 89.1842136 15.10546875 105.73828125 C13.9018675 107.17673152 12.67111913 108.59278519 11.41796875 109.98828125 C10.68964844 110.80941406 9.96132812 111.63054687 9.2109375 112.4765625 C-2.63597183 125.08902332 -16.92483243 131.28668151 -33.58203125 134.98828125 C-33.58203125 159.07828125 -33.58203125 183.16828125 -33.58203125 207.98828125 C-26.65203125 204.52328125 -26.65203125 204.52328125 -19.58203125 200.98828125 C-14.23869255 199.25623483 -9.32196361 198.69740725 -3.73989868 198.72999573 C-2.99282886 198.72632002 -2.24575904 198.72264432 -1.47605073 198.71885723 C1.00480701 198.70894878 3.48543744 198.71301365 5.96630859 198.71704102 C7.75419857 198.71264983 9.5420865 198.70734625 11.32997131 198.70120239 C15.16966374 198.68973184 19.00930119 198.68424514 22.84901047 198.683321 C28.92654146 198.68137458 35.00395933 198.66329003 41.08145142 198.64256287 C56.17619722 198.59345337 71.27097365 198.56250589 86.36578369 198.54125977 C98.10038188 198.52471869 109.83488267 198.50185746 121.56941569 198.45823902 C127.60469536 198.43651606 133.63978976 198.42839981 139.67510581 198.43063176 C143.43738323 198.42895942 147.19954068 198.41487672 150.96177483 198.39741898 C152.69913418 198.39184241 154.43651864 198.39131298 156.17387962 198.39635658 C168.41387988 198.42814992 179.9780534 198.3319908 189.23046875 189.19921875 C196.69441809 181.14437342 198.49644067 173.46853999 198.734375 162.625 C198.76554665 161.43702568 198.76554665 161.43702568 198.79734802 160.22505188 C198.86244679 157.70871197 198.92154298 155.19227253 198.98046875 152.67578125 C199.02369175 150.96418264 199.06730723 149.2525939 199.11132812 147.54101562 C199.21808722 143.35687141 199.3194651 139.17262763 199.41796875 134.98828125 C198.50378174 134.81522461 197.58959473 134.64216797 196.64770508 134.46386719 C189.68445845 133.07277574 183.36610355 131.61727258 177.10546875 128.23828125 C176.09685791 127.71113525 176.09685791 127.71113525 175.06787109 127.17333984 C169.71105906 124.30144666 164.91958735 121.0914515 160.41796875 116.98828125 C159.19013672 115.89773437 159.19013672 115.89773437 157.9375 114.78515625 C144.42391262 102.10977928 135.93671475 84.57438098 135.08203125 65.98046875 C134.68941061 43.91476197 140.27742593 24.40168878 155.5 7.89453125 C169.81817383 -6.78484777 189.46204213 -14.96949123 209.91796875 -15.26171875 C228.01322004 -15.07023461 244.46299492 -9.48681032 258.41796875 1.98828125 C259.12308594 2.53097656 259.82820313 3.07367188 260.5546875 3.6328125 C274.55352329 14.9363911 282.99638466 32.33561217 285.41796875 49.98828125 C287.25959042 70.25402358 283.3978062 89.1842136 271.10546875 105.73828125 C269.9018675 107.17673152 268.67111913 108.59278519 267.41796875 109.98828125 C266.68964844 110.80941406 265.96132813 111.63054687 265.2109375 112.4765625 C253.22399959 125.23810059 238.40693836 131.8525703 221.41796875 134.98828125 C221.44938965 136.74918091 221.44938965 136.74918091 221.48144531 138.5456543 C221.55462886 142.96072876 221.60004923 147.37575128 221.63769531 151.79125977 C221.6576343 153.6910915 221.68479566 155.59086329 221.71972656 157.49047852 C222.05254176 176.07429168 219.55897049 191.73180719 206.23046875 205.80078125 C195.4932382 216.0274098 182.62216766 221.1493812 167.85430908 221.12631226 C167.11303166 221.12913354 166.37175424 221.13195482 165.60801387 221.13486159 C163.13482402 221.14316574 160.66167918 221.14454224 158.18847656 221.14599609 C156.41073481 221.15066741 154.63299425 221.1558115 152.85525513 221.16139221 C149.03136559 221.17265276 145.20748375 221.18109679 141.38358307 221.18751144 C135.33143737 221.19821495 129.27934711 221.21846617 123.22723389 221.2406311 C106.01870261 221.30247608 88.81017487 221.35654636 71.6015625 221.38964844 C62.09393092 221.40801708 52.58639255 221.43697982 43.07882953 221.47765315 C38.05170793 221.49868262 33.0247036 221.5141747 27.99753571 221.51646042 C23.26636689 221.5186142 18.53544233 221.53455783 13.80434799 221.56085014 C12.07344537 221.56801638 10.34251307 221.57015716 8.61159897 221.56674767 C-3.60879661 221.5465309 -15.15895643 221.66119447 -24.39453125 230.77734375 C-31.85848059 238.83218908 -33.66050317 246.50802251 -33.8984375 257.3515625 C-33.92960915 258.53953682 -33.92960915 258.53953682 -33.96141052 259.75151062 C-34.02650929 262.26785053 -34.08560548 264.78428997 -34.14453125 267.30078125 C-34.18775425 269.01237986 -34.23136973 270.7239686 -34.27539062 272.43554688 C-34.38214972 276.61969109 -34.4835276 280.80393487 -34.58203125 284.98828125 C-33.66784424 285.16133789 -32.75365723 285.33439453 -31.81176758 285.51269531 C-24.84852095 286.90378676 -18.53016605 288.35928992 -12.26953125 291.73828125 C-11.59712402 292.08971191 -10.9247168 292.44114258 -10.23193359 292.80322266 C-4.87369294 295.67588176 -0.0890197 298.88947289 4.41796875 302.98828125 C5.22492188 303.69210937 6.031875 304.3959375 6.86328125 305.12109375 C20.43281503 317.69469845 28.91651977 335.45552153 29.75390625 353.99609375 C30.14652689 376.06180053 24.55851157 395.57487372 9.3359375 412.08203125 C-4.98223633 426.76141027 -24.62610463 434.94605373 -45.08203125 435.23828125 C-65.84828082 435.04008799 -84.26985239 427.31950454 -99.42578125 413.234375 C-114.4619983 397.57164891 -121.28636112 378.20050723 -121.05249023 356.78295898 C-120.45512008 339.3381575 -114.32444862 323.06452291 -102.58203125 309.98828125 C-101.85371094 309.16714844 -101.12539062 308.34601563 -100.375 307.5 C-88.23804579 294.5787515 -73.71596607 288.41506821 -56.58203125 284.98828125 C-56.91203125 235.48828125 -57.24203125 185.98828125 -57.58203125 134.98828125 C-62.53203125 133.66828125 -67.48203125 132.34828125 -72.58203125 130.98828125 C-75.47212497 129.8725013 -78.05602444 128.8301238 -80.76953125 127.42578125 C-81.42751709 127.090625 -82.08550293 126.75546875 -82.76342773 126.41015625 C-89.72561377 122.66953211 -95.14136893 117.65424707 -100.58203125 111.98828125 C-101.2575 111.30894531 -101.93296875 110.62960938 -102.62890625 109.9296875 C-116.90592173 94.73666882 -121.29693463 75.5067911 -120.88671875 55.3125 C-120.06050005 36.17631892 -111.29229018 18.24655362 -97.58203125 4.98828125 C-70.57272204 -18.76560129 -28.95804101 -22.71302774 0 0 Z M-87.58203125 27.98828125 C-96.34618596 40.64761583 -100.23593411 53.77367755 -98.15625 69.1328125 C-95.43102345 82.95957542 -88.43559534 95.26478431 -76.921875 103.5078125 C-62.83752221 112.41928112 -48.37495437 115.4171426 -31.9609375 112.30078125 C-16.78045923 107.56305071 -5.60590924 98.1300714 1.8984375 84.25 C8.39831379 70.77371689 9.22938887 57.18561561 4.41796875 42.98828125 C-1.07350843 29.13638209 -10.63683106 18.62752927 -24.08203125 12.23828125 C-46.7816115 2.60721787 -71.79370658 8.86477386 -87.58203125 27.98828125 Z M168.41796875 27.98828125 C159.65381404 40.64761583 155.76406589 53.77367755 157.84375 69.1328125 C160.56897655 82.95957542 167.56440466 95.26478431 179.078125 103.5078125 C193.16247779 112.41928112 207.62504563 115.4171426 224.0390625 112.30078125 C239.21954077 107.56305071 250.39409076 98.1300714 257.8984375 84.25 C264.39831379 70.77371689 265.22938887 57.18561561 260.41796875 42.98828125 C254.92649157 29.13638209 245.36316894 18.62752927 231.91796875 12.23828125 C209.2183885 2.60721787 184.20629342 8.86477386 168.41796875 27.98828125 Z M-84.58203125 322.98828125 C-94.56152292 335.2093866 -99.95131334 349.14373136 -98.58203125 364.98828125 C-96.16211091 380.3008864 -88.69325798 392.79650189 -76.51953125 402.36328125 C-64.77466292 410.57081719 -51.79971513 413.5215956 -37.58203125 411.98828125 C-22.76647118 409.08423459 -10.70119376 401.71014833 -1.765625 389.5078125 C6.43808594 376.57514538 9.31845675 362.64635533 6.35546875 347.61328125 C2.8405499 333.73512748 -4.98883971 322.51159626 -16.8203125 314.59375 C-38.73981659 301.8512943 -66.68120878 304.07180928 -84.58203125 322.98828125 Z " fill="#FFFFFF" transform="translate(173.58203125,46.01171875)"/>
</svg>
