<!DOCTYPE svg PUBLIC "-//W3C//DTD SVG 1.1//EN" "http://www.w3.org/Graphics/SVG/1.1/DTD/svg11.dtd">
<!-- Uploaded to: SVG Repo, www.svgrepo.com, Transformed by: SVG Repo Mixer Tools -->
<svg width="800px" height="800px" viewBox="0 0 15 15" fill="none" xmlns="http://www.w3.org/2000/svg">
<g id="SVGRepo_bgCarrier" stroke-width="0"/>
<g id="SVGRepo_tracerCarrier" stroke-linecap="round" stroke-linejoin="round"/>
<g id="SVGRepo_iconCarrier"> <path d="M2.5 4.5C1.39543 4.5 0.5 3.60457 0.5 2.5C0.5 1.39543 1.39543 0.5 2.5 0.5C3.60457 0.5 4.5 1.39543 4.5 2.5C4.5 3.60457 3.60457 4.5 2.5 4.5ZM2.5 4.5V10.5M2.5 10.5C3.60457 10.5 4.5 11.3954 4.5 12.5C4.5 13.6046 3.60457 14.5 2.5 14.5C1.39543 14.5 0.5 13.6046 0.5 12.5C0.5 11.3954 1.39543 10.5 2.5 10.5ZM12.5 4.5C11.3954 4.5 10.5 3.60457 10.5 2.5C10.5 1.39543 11.3954 0.5 12.5 0.5C13.6046 0.5 14.5 1.39543 14.5 2.5C14.5 3.60457 13.6046 4.5 12.5 4.5ZM12.5 4.5V5.5C12.5 7.15685 11.1569 8.5 9.5 8.5H2.5" stroke="#ffffff"/> </g>
</svg>